<?xml version="1.0" encoding="UTF-8"?>
<!DOCTYPE svg PUBLIC "-//W3C//DTD SVG 1.1//EN" "http://www.w3.org/Graphics/SVG/1.1/DTD/svg11.dtd">
<!-- Creator: CorelDRAW (Versão de avaliação) -->
<svg xmlns="http://www.w3.org/2000/svg" xml:space="preserve" width="99.8676mm" height="22.1822mm" version="1.1" style="shape-rendering:geometricPrecision; text-rendering:geometricPrecision; image-rendering:optimizeQuality; fill-rule:evenodd; clip-rule:evenodd"
viewBox="0 0 9865.18 2191.21"
 xmlns:xlink="http://www.w3.org/1999/xlink"
 xmlns:xodm="http://www.corel.com/coreldraw/odm/2003">
 <defs>
  <style type="text/css">
   <![CDATA[
    .fil2 {fill:none;fill-rule:nonzero}
    .fil0 {fill:#248435;fill-rule:nonzero}
    .fil1 {fill:#FF914D;fill-rule:nonzero}
   ]]>
  </style>
   <clipPath id="id0" style="clip-rule:nonzero">
    <path d="M-0 0l2130.1 0 0 2191.21 -2130.1 0 0 -2191.21zm0 0z"/>
   </clipPath>
   <clipPath id="id1" style="clip-rule:nonzero">
    <path d="M698.46 419l733.31 0 0 1405.5 -733.31 0 0 -1405.5zm0 0z"/>
   </clipPath>
   <clipPath id="id2" style="clip-rule:nonzero">
    <path d="M916.67 419l295.67 0 0 85.21 -295.67 0 0 -85.21zm0 0z"/>
   </clipPath>
   <clipPath id="id3" style="clip-rule:nonzero">
    <path d="M758.49 809.67l613.11 0 0 558.94 -613.11 0 0 -558.94zm0 0z"/>
   </clipPath>
 </defs>
 <g id="Camada_x0020_1">
  <metadata id="CorelCorpID_0Corel-Layer"/>
  <g id="_322599912">
   <g>
    <g>
     <path class="fil0" d="M2639.72 202.91l-455.21 0c-45.46,6.94 -68.06,31.45 -68.06,73.51l0 426.35 439.96 0 0 67.52 -439.96 0 0 570.09 -75.69 0 0 -1062.87 0.54 0c0,-43.83 13.75,-78.68 41.39,-104.54 27.91,-25.73 64.25,-38.66 108.9,-38.66l448.13 0 0 68.6zm0 0z"/>
    </g>
   </g>
  </g>
  <g id="_409308616">
   <g>
    <g>
     <path class="fil0" d="M2819.89 296.57c0,34.58 -17.43,51.73 -52.27,51.73 -33.08,0 -49.55,-17.15 -49.55,-51.73 0,-32.94 16.47,-49.55 49.55,-49.55 34.84,0 52.27,16.61 52.27,49.55zm-15.79 1043.82l-70.79 0 0 -814.58 70.79 0 0 814.58zm0 0z"/>
    </g>
   </g>
  </g>
  <g id="_419099976">
   <g>
    <g>
     <path class="fil0" d="M3561 1340.38l-69.15 0 0 -482.42c0,-81.68 -22.87,-148.66 -68.6,-200.92 -48.74,-54.73 -113.13,-82.23 -193.31,-82.23 -79.49,0 -142.93,23.96 -190.03,71.87 -47.24,47.92 -70.79,111.9 -70.79,191.67l0 500.4 -1.09 0 0 1.63 -69.15 0 0 -1.63 -0.55 0 0 -814.58 70.79 0 0 112.17c60.58,-83.86 147.56,-125.78 260.82,-125.78 106.72,0 189.63,35.8 248.84,107.27 54.73,65.75 82.22,153 82.22,261.9l0 460.65zm0 0z"/>
    </g>
   </g>
  </g>
  <g id="_373128696">
   <g>
    <g>
     <path class="fil0" d="M4458.07 1340.38l-70.79 0 0 -151.36c-44.38,61.8 -106.04,108.08 -185.13,138.84 -47.65,18.52 -97.88,27.78 -150.83,27.78 -124.15,0 -223.79,-39.21 -298.94,-117.62 -75.14,-78.4 -112.71,-179.81 -112.71,-304.37 0,-127.01 36.08,-228.7 108.35,-304.93 73.64,-78.68 173.7,-118.15 300.02,-118.15 144.43,0 257.56,60.17 339.23,180.23l0 -166.07 70.79 0 0 815.67zm-70.79 -255.37l0 -109.98c0,-113.94 -26.96,-206.91 -80.59,-278.78 -60.31,-80.86 -145.39,-121.43 -255.37,-121.43 -104.54,0 -187.31,33.63 -248.3,100.74 -59.62,65.33 -89.29,150.83 -89.29,256.46 0,107.13 29.13,192.75 87.66,257.01 60.57,66.84 143.89,100.19 249.93,100.19 54.04,0 104.27,-11.57 150.83,-34.85 80.85,-39.89 142.65,-96.37 185.13,-169.34zm0 0z"/>
    </g>
   </g>
  </g>
  <g id="_419384912">
   <g>
    <g>
     <path class="fil0" d="M5199.51 1340.38l-69.15 0 0 -482.42c0,-81.68 -22.87,-148.66 -68.61,-200.92 -48.73,-54.73 -113.12,-82.23 -193.3,-82.23 -79.49,0 -142.93,23.96 -190.03,71.87 -47.24,47.92 -70.79,111.9 -70.79,191.67l0 500.4 -1.09 0 0 1.63 -69.16 0 0 -1.63 -0.54 0 0 -814.58 70.79 0 0 112.17c60.57,-83.86 147.56,-125.78 260.82,-125.78 106.72,0 189.62,35.8 248.84,107.27 54.73,65.75 82.22,153 82.22,261.9l0 460.65zm0 0z"/>
    </g>
   </g>
  </g>
  <g id="_372634040">
   <g>
    <g>
     <path class="fil0" d="M6313.28 296.57l-57.18 44.65c-100.6,-105.63 -224.2,-158.45 -370.81,-158.45 -158.31,0 -286.68,52.82 -384.97,158.45 -95.55,102.37 -143.2,233.59 -143.2,393.68 0,160.49 47.5,292.13 142.65,394.76 97.61,106.46 226.11,159.54 385.51,159.54 143.34,0 266.95,-54.73 370.81,-164.44l40.29 69.16c-116.25,111.89 -253.19,167.7 -411.1,167.7 -181.59,0 -328.74,-58.94 -441.59,-176.96 -110.4,-116.12 -165.53,-265.45 -165.53,-448.13 0,-180.78 56.08,-329.57 168.25,-446.5 112.44,-117.21 258.78,-175.87 438.87,-175.87 166.89,0 309.55,60.84 427.99,182.4zm0 0z"/>
    </g>
   </g>
  </g>
  <g id="_373393016">
   <g>
    <g>
     <path class="fil0" d="M7214.06 933.64c0,123.05 -37.98,224.2 -113.81,303.28 -75.55,79.22 -174.51,118.71 -296.75,118.71 -121.7,0 -220.8,-39.75 -297.3,-119.25 -76.23,-79.5 -114.35,-180.37 -114.35,-302.74 0,-122.24 38.12,-223.39 114.35,-303.29 76.5,-79.77 175.6,-119.79 297.3,-119.79 122.24,0 221.75,40.16 298.39,120.34 74.73,78.82 112.17,179.69 112.17,302.75zm-74.6 -1.64c0,-104.14 -29.81,-189.22 -89.3,-255.37 -60.98,-67.78 -143.21,-101.83 -246.66,-101.83 -103.18,0 -185.95,34.04 -248.29,101.83 -59.63,65.75 -89.3,150.83 -89.3,255.37 0,104.27 29.67,189.22 89.3,254.83 61.66,68.34 144.43,102.37 248.29,102.37 102.37,0 184.32,-34.31 246.12,-102.91 59.89,-66.7 89.84,-151.51 89.84,-254.29zm0 0z"/>
    </g>
   </g>
  </g>
  <g id="_374656120">
   <g>
    <g>
     <path class="fil0" d="M7955.07 1340.38l-69.16 0 0 -482.42c0,-81.68 -22.87,-148.66 -68.6,-200.92 -48.74,-54.73 -113.13,-82.23 -193.3,-82.23 -79.5,0 -142.94,23.96 -190.04,71.87 -47.23,47.92 -70.78,111.9 -70.78,191.67l0 500.4 -1.1 0 0 1.63 -69.15 0 0 -1.63 -0.54 0 0 -814.58 70.79 0 0 112.17c60.57,-83.86 147.55,-125.78 260.82,-125.78 106.72,0 189.62,35.8 248.83,107.27 54.73,65.75 82.23,153 82.23,261.9l0 460.65zm0 0z"/>
    </g>
   </g>
  </g>
  <g id="_409323792">
   <g>
    <g>
     <path class="fil0" d="M8325.04 593.33l-220.52 0 0 582.07c0,66.16 23.55,99.11 70.79,99.11l48.46 0 0 65.88 -35.94 0c-102.78,0 -154.1,-52.81 -154.1,-158.45l0 -887 70.79 0 0 230.86 220.52 0 0 67.53zm0 0z"/>
    </g>
   </g>
  </g>
  <g id="_374989416">
   <g>
    <g>
     <path class="fil0" d="M8815.32 603.13l-4.9 0c5.44,0 -26.41,-3.81 -95.3,-11.44 -78.14,-0.68 -144.15,33.49 -198.2,102.37 -50.91,65.75 -76.23,159.95 -76.23,282.6l0 363.73 -69.15 0 0 -814.58 69.15 0 0 159c65.61,-108.09 160.35,-162.26 284.23,-162.26 9.81,1.09 39.89,5.3 90.4,12.53l0 68.06zm0 0z"/>
    </g>
   </g>
  </g>
  <g id="_419387248">
   <g>
    <g>
     <path class="fil0" d="M9716.05 933.64c0,123.05 -37.98,224.2 -113.81,303.28 -75.55,79.22 -174.51,118.71 -296.75,118.71 -121.7,0 -220.8,-39.75 -297.3,-119.25 -76.23,-79.5 -114.35,-180.37 -114.35,-302.74 0,-122.24 38.12,-223.39 114.35,-303.29 76.5,-79.77 175.6,-119.79 297.3,-119.79 122.24,0 221.75,40.16 298.39,120.34 74.73,78.82 112.17,179.69 112.17,302.75zm-74.6 -1.64c0,-104.14 -29.81,-189.22 -89.3,-255.37 -60.98,-67.78 -143.21,-101.83 -246.66,-101.83 -103.18,0 -185.95,34.04 -248.29,101.83 -59.63,65.75 -89.3,150.83 -89.3,255.37 0,104.27 29.67,189.22 89.3,254.83 61.66,68.34 144.43,102.37 248.29,102.37 102.37,0 184.32,-34.31 246.12,-102.91 59.89,-66.7 89.84,-151.51 89.84,-254.29zm0 0z"/>
    </g>
   </g>
  </g>
  <g id="_286086472">
   <g>
    <g>
     <path class="fil0" d="M9865.18 1340.38l-70.79 0 0 -1206.08 70.79 0 0 1206.08zm0 0z"/>
    </g>
   </g>
  </g>
  <g>
  </g>
  <g style="clip-path:url(#id0)">
   <g id="_373089576">
    <path class="fil1" d="M2129.01 1395.42c-20.82,68.74 -165.93,521.78 -619.24,711.4 -440.64,184.45 -979.29,39.07 -1280.26,-354.47 -287.5,-375.58 -315,-920.62 -16.48,-1315.93 304.38,-403.21 865.09,-541.38 1337.45,-320.86l37.84 -114.48 186.08 334.87 -381.56 -58.4 92.57 -76.09c-67.79,-29.41 -389.87,-160.77 -759.59,-21.78 -53.5,20.14 -448.4,176.28 -589.02,600.73 -124.42,375.84 7.08,791.57 293.63,1046.95 285.59,254.69 716.15,341.81 1077.97,169.88 356.11,-169.33 480.39,-511.29 504.9,-583.84l115.7 -17.97z"/>
   </g>
  </g>
  <path class="fil2" d="M-0 0l2130.1 0 0 2191.21 -2130.1 0 0 -2191.21zm0 0z"/>
  <g>
  </g>
  <g style="clip-path:url(#id1)">
   <g id="_373924760">
    <path class="fil0" d="M725.14 553.89l0 1132.3 -13.34 0 13.34 0c0,58.4 47.38,105.64 105.64,105.64l0 13.34 0 -13.34 468.68 0 0 13.34 0 -13.34c58.39,0 105.63,-47.38 105.63,-105.64l0 -0.54 -6.94 -1132.43c-0.27,-57.99 -47.5,-104.96 -105.49,-104.96l-461.88 0c-58.4,0 -105.64,47.38 -105.64,105.64l-13.34 0 13.34 0zm-26.54 0c0,-73.1 59.21,-132.18 132.18,-132.18l461.88 0c72.68,0 131.63,58.68 132.04,131.36l-13.21 0.14 13.21 -0.14 6.93 1132.43 -13.34 0.14 13.34 -0.14 0 0.82c0,72.96 -59.21,132.18 -132.17,132.18l-468.68 0c-73.1,0 -132.18,-59.22 -132.18,-132.18l0 -1132.43z"/>
   </g>
  </g>
  <path class="fil2" d="M698.46 419l733.31 0 0 1405.5 -733.31 0 0 -1405.5zm0 0z"/>
  <g>
  </g>
  <g style="clip-path:url(#id2)">
   <g id="_374516016">
    <path class="fil0" d="M1171.91 500.67l-213.72 0c-20.56,0 -37.43,-16.74 -37.43,-37.44 0,-20.69 16.87,-37.43 37.43,-37.43l213.59 0c20.69,0 37.57,16.74 37.57,37.43 0,20.69 -16.88,37.44 -37.57,37.44l0.13 0zm0 0l1010.6 -114.31 -1010.6 114.31z"/>
   </g>
  </g>
  <path class="fil2" d="M916.67 419l295.67 0 0 85.21 -295.67 0 0 -85.21zm0 0z"/>
  <g>
  </g>
  <g style="clip-path:url(#id3)">
   <g id="_373235664">
    <path class="fil1" d="M1371.2 809.67l-117.75 23.01 38.11 33.22 -200.92 231.28 -104.27 -73.38 -1.77 -1.22c-10.21,-7.08 -24.37,-5.44 -32.54,4.22l-193.16 227.6 3.54 3.4 210.04 -178.18 107.13 75.41c11.16,7.76 26.54,6.12 35.67,-4.36l216.85 -249.65 32.94 28.59 6.12 -119.93zm-122.65 226.11l0 341.67 89.43 0 0 -444.58 -89.43 102.91zm-108.23 341.67l89.3 0 0 -319.76 -89.3 102.91 0 216.85zm-108.35 -227.05l0 227.05 89.44 0 0 -195.07 -16.74 19.19 -72.69 -51.18zm-108.35 -0.14l0 227.19 89.44 0 0 -240.26 -39.48 -27.77 -49.95 40.84zm-18.93 15.52l0 211.67 -89.29 0 0 -138.43 89.29 -73.24z"/>
   </g>
  </g>
  <path class="fil2" d="M758.49 809.67l613.11 0 0 558.94 -613.11 0 0 -558.94zm0 0z"/>
 </g>
</svg>
